<svg id="Calque_1" data-name="Calque 1" xmlns="http://www.w3.org/2000/svg" xmlns:xlink="http://www.w3.org/1999/xlink" viewBox="0 0 240.94 127.56"><defs><style>.cls-1{fill:none;}.cls-2,.cls-5{fill:#b4a169;}.cls-2{opacity:0.2;}.cls-3{clip-path:url(#clip-path);}.cls-4{opacity:0.3;}</style><clipPath id="clip-path"><rect class="cls-1" width="240.9" height="127.56"/></clipPath></defs><title>carte visite</title><path class="cls-2" d="M17.58,111.84h4v29.32h8.07V111.84h4v29.32h5.47v-27A6.09,6.09,0,0,1,45.16,108v-7.6H6V108a6.09,6.09,0,0,1,6.09,6.09v27h5.47Z"/><path class="cls-2" d="M62.25,111.84h4v29.32h8.07V111.84h4v29.32h5.48v-27A6.09,6.09,0,0,1,89.82,108v-7.6H50.69V108a6.09,6.09,0,0,1,6.09,6.09v27h5.47Z"/><g class="cls-3"><g class="cls-4"><path class="cls-5" d="M227.6,7.85a.17.17,0,0,0-.11-.23.19.19,0,0,0-.24.08,81.18,81.18,0,0,0-5.69,14.64c-1-2.12-2.65-7-.79-11.62,1-3.28,3.68-5.52,5.74-6.92a17.21,17.21,0,0,1,3.76-1.95,24.41,24.41,0,0,1,.8,4.2,20.35,20.35,0,0,1-.77,8.21,22.43,22.43,0,0,1-6.86,8.52A80,80,0,0,1,227.6,7.85Z"/><path class="cls-5" d="M237.26,23.12a.12.12,0,0,0,.07-.19.21.21,0,0,0-.24-.09A78.87,78.87,0,0,0,222.23,28a14.09,14.09,0,0,1,8-7.57c3-1,6.39-.69,8.87-.19a28.21,28.21,0,0,1,4.26,1.21s-.83,1.11-2.09,2.55a18.38,18.38,0,0,1-6.43,4.28,25.36,25.36,0,0,1-11.61,1.29,78.12,78.12,0,0,1,6.91-3.67C232.53,24.87,234.91,23.94,237.26,23.12Z"/><path class="cls-5" d="M209.38,15.48a.23.23,0,0,1,.05-.3.19.19,0,0,1,.26,0,87.44,87.44,0,0,0,11,12.58c-.45-2.39-1-7-3.9-11.14a20.46,20.46,0,0,0-7-6A19.29,19.29,0,0,0,205.73,9a16,16,0,0,0-.23,5.1c.29,2.95.93,6.55,3.22,9.33,3.29,4,8.15,5.15,10.58,5.59-1.77-2-3.64-4.19-5.28-6.45S210.88,18,209.38,15.48Z"/><path class="cls-5" d="M235.12,34.48a.13.13,0,0,0,0-.21.25.25,0,0,0-.25-.05,87.49,87.49,0,0,0-13.7,7.72,13.8,13.8,0,0,1,2-4.44,12.86,12.86,0,0,1,4.55-4.41,18.16,18.16,0,0,1,8.78-1.72,27.58,27.58,0,0,1,4.39.45,14.34,14.34,0,0,1-1.7,2.87A16.33,16.33,0,0,1,233.66,40a25.49,25.49,0,0,1-11.2,3.28c1-.87,2-1.7,3-2.5s2.15-1.57,3.23-2.31C230.84,37,233,35.69,235.12,34.48Z"/><path class="cls-5" d="M206.34,31.79a.22.22,0,0,1,0-.3.17.17,0,0,1,.25,0A97.84,97.84,0,0,0,219.65,42a47.79,47.79,0,0,0-1.79-4.67,20.31,20.31,0,0,0-4-5.62A19.29,19.29,0,0,0,206,27a19,19,0,0,0-4.32-.91,23.74,23.74,0,0,0,.57,5.05,18.33,18.33,0,0,0,4.84,8.64c3.86,3.37,9,3.65,11.39,3.66q-1.62-1.26-3.24-2.61c-1-.91-2-1.85-3-2.82Q209.29,35.1,206.34,31.79Z"/><path class="cls-5" d="M235.08,46.05a.12.12,0,0,0,0-.21.21.21,0,0,0-.25,0,63.37,63.37,0,0,0-6.24,4.63q-3,2.49-6,5.35a20.24,20.24,0,0,1,1.23-4.72A11.52,11.52,0,0,1,227.59,46a17.65,17.65,0,0,1,8.28-3.22,27.53,27.53,0,0,1,4.4-.31,12.93,12.93,0,0,1-1.12,3.12c-.5.91-1,1.93-1.69,3a16.45,16.45,0,0,1-2.84,3.22A26.25,26.25,0,0,1,224.07,57a65.77,65.77,0,0,1,5.35-5.83A61.71,61.71,0,0,1,235.08,46.05Z"/><path class="cls-5" d="M206.27,48.37a.22.22,0,0,1,0-.29.18.18,0,0,1,.25-.06,73.58,73.58,0,0,0,7.26,4.42c2.45,1.35,4.9,2.57,7.32,3.66a23.54,23.54,0,0,0-2.53-4.3A24.4,24.4,0,0,0,213.69,47a19.68,19.68,0,0,0-8.59-3.24,19.42,19.42,0,0,0-4.42-.15,26.36,26.36,0,0,0,1.5,4.88,16.85,16.85,0,0,0,6.26,7.65c4.25,2.68,9.36,2.07,11.77,1.66a69,69,0,0,1-7.05-4.28A75.15,75.15,0,0,1,206.27,48.37Z"/><path class="cls-5" d="M237,57.46a.13.13,0,0,0,0-.21.23.23,0,0,0-.25,0,79,79,0,0,0-10.34,11.93c-.13-2.34-.07-7,3.21-10.56a17.46,17.46,0,0,1,7.54-4.58A27.94,27.94,0,0,1,241.45,53a12.22,12.22,0,0,1-.49,3.26,25.18,25.18,0,0,1-1.22,3.27,16.06,16.06,0,0,1-2.19,3.64A26.17,26.17,0,0,1,228,70.11c1.39-2.34,2.83-4.57,4.3-6.67.74-1,1.46-2.06,2.24-3S236.2,58.4,237,57.46Z"/><path class="cls-5" d="M209.05,64.7a.25.25,0,0,1-.09-.29.19.19,0,0,1,.24-.09A89,89,0,0,0,225,69.76,25.57,25.57,0,0,0,216.11,62a21.31,21.31,0,0,0-13.46-1.08A26.44,26.44,0,0,0,205,65.46a18.15,18.15,0,0,0,3,3.68,15.31,15.31,0,0,0,4.43,2.79c4.74,1.88,9.51.46,11.83-.36-2.51-.89-5.06-1.89-7.66-3-1.29-.57-2.62-1.16-3.89-1.8S210.3,65.42,209.05,64.7Z"/><path class="cls-5" d="M240.9,68.37a.13.13,0,0,0-.07-.2.23.23,0,0,0-.24.09c-1.52,2-3,4.23-4.41,6.51s-2.53,4.55-3.71,7a19.41,19.41,0,0,1-.59-4.78,14,14,0,0,1,1.91-6.16A17.11,17.11,0,0,1,240.42,65a27.57,27.57,0,0,1,4.05-1.8s0,.36.07.92a14,14,0,0,1,0,2.37,20.06,20.06,0,0,1-2.19,7.4,25.64,25.64,0,0,1-8.16,8.43q1.41-3.8,3-7.25A71.57,71.57,0,0,1,240.9,68.37Z"/><path class="cls-5" d="M214.57,80.31a.24.24,0,0,1-.14-.27.17.17,0,0,1,.22-.13c2.78.7,5.53,1.29,8.21,1.76s5.58.7,8.28.88a25,25,0,0,0-4-3.11,18.37,18.37,0,0,0-6.1-3,20.54,20.54,0,0,0-9.25-.11,19.63,19.63,0,0,0-4.2,1.35,6.08,6.08,0,0,0,.78,1.23,27.42,27.42,0,0,0,2.36,2.81c2,2.12,4.86,4.44,8.45,5.1,5,1,9.51-1.21,11.66-2.42-2.66-.43-5.38-1-8.16-1.61S217.34,81.26,214.57,80.31Z"/><path class="cls-5" d="M246.55,78.46a.12.12,0,0,0-.11-.18.24.24,0,0,0-.22.13,80.11,80.11,0,0,0-5.65,14.69,14.22,14.22,0,0,1-.61-11c1.12-2.94,3.64-5.33,5.61-6.89a28.18,28.18,0,0,1,3.67-2.46,6.4,6.4,0,0,1,.21.9c.08.6.25,1.39.38,2.35a18,18,0,0,1-.9,7.67,25.39,25.39,0,0,1-6.53,9.68,75.21,75.21,0,0,1,1.68-7.65C244.83,83.19,245.66,80.77,246.55,78.46Z"/><path class="cls-5" d="M222.67,94.76a.23.23,0,0,1-.19-.23.17.17,0,0,1,.19-.17,87.88,87.88,0,0,0,16.73-.26c-2.12-1.19-6-3.83-11-4.23a20.21,20.21,0,0,0-9,1.44,19.1,19.1,0,0,0-3.91,2s.34.43,1,1.1a15.21,15.21,0,0,0,2.77,2.38c2.43,1.7,5.62,3.51,9.2,3.59,5.19.09,9.21-2.88,11.12-4.45a80.17,80.17,0,0,1-8.33-.16Q227,95.46,222.67,94.76Z"/><path class="cls-5" d="M233.13,107.64a.21.21,0,0,1-.22-.2.18.18,0,0,1,.16-.2,100.77,100.77,0,0,0,16.44-3.16,43.21,43.21,0,0,0-4.71-1.67,21.25,21.25,0,0,0-6.87-.61,20.69,20.69,0,0,0-12.13,5.66A26.16,26.16,0,0,0,230,110.3a18.47,18.47,0,0,0,9.73,1.89c5-.71,8.59-4.46,10.16-6.3-1.34.28-2.72.56-4.09.78s-2.71.33-4.09.46C239,107.4,236.09,107.57,233.13,107.64Z"/><path class="cls-5" d="M245.75,118.41a.23.23,0,0,1-.25-.17.17.17,0,0,1,.12-.22c1.38-.38,2.72-.76,4-1.18s2.7-1,4-1.47q3.95-1.53,7.56-3.26a24.21,24.21,0,0,0-5-.81,26.51,26.51,0,0,0-3.32,0,16.11,16.11,0,0,0-3.49.49,21.13,21.13,0,0,0-11,7.74,26.45,26.45,0,0,0,4.7,2,16.15,16.15,0,0,0,9.88.18c4.84-1.57,7.6-5.71,8.86-7.83q-3.74,1.38-7.8,2.55A66.38,66.38,0,0,1,245.75,118.41Z"/></g><path class="cls-2" d="M106.91,111.84h4v29.32H119V111.84h4v29.32h5.47v-27a6.09,6.09,0,0,1,6.09-6.09v-7.6H95.35V108a6.09,6.09,0,0,1,6.09,6.09v27h5.47Z"/></g></svg>